<svg width="979" height="317" viewBox="0 0 979 317" fill="none" xmlns="http://www.w3.org/2000/svg">
<path d="M164.205 112.5C163.447 103.03 159.896 95.6439 153.551 90.3409C147.301 85.0379 137.784 82.3864 125 82.3864C116.856 82.3864 110.18 83.3807 104.972 85.3693C99.858 87.2633 96.0701 89.8674 93.608 93.1818C91.1458 96.4962 89.8674 100.284 89.7727 104.545C89.5833 108.049 90.1989 111.222 91.6193 114.062C93.1345 116.809 95.5019 119.318 98.7216 121.591C101.941 123.769 106.061 125.758 111.08 127.557C116.098 129.356 122.064 130.966 128.977 132.386L152.841 137.5C168.939 140.909 182.718 145.407 194.176 150.994C205.634 156.581 215.009 163.163 222.301 170.739C229.593 178.22 234.943 186.648 238.352 196.023C241.856 205.398 243.655 215.625 243.75 226.705C243.655 245.833 238.873 262.027 229.403 275.284C219.934 288.542 206.392 298.627 188.778 305.54C171.259 312.453 150.189 315.909 125.568 315.909C100.284 315.909 78.2197 312.169 59.375 304.688C40.625 297.206 26.0417 285.701 15.625 270.17C5.30303 254.545 0.0946969 234.564 0 210.227H75C75.4735 219.129 77.6989 226.61 81.6761 232.67C85.6534 238.731 91.2405 243.324 98.4375 246.449C105.729 249.574 114.394 251.136 124.432 251.136C132.86 251.136 139.915 250.095 145.597 248.011C151.278 245.928 155.587 243.04 158.523 239.347C161.458 235.653 162.973 231.439 163.068 226.705C162.973 222.254 161.506 218.371 158.665 215.057C155.919 211.648 151.373 208.617 145.028 205.966C138.684 203.22 130.114 200.663 119.318 198.295L90.3409 192.045C64.5833 186.458 44.2708 177.131 29.4034 164.062C14.6307 150.9 7.29167 132.955 7.38636 110.227C7.29167 91.7614 12.2159 75.6155 22.1591 61.7898C32.197 47.8693 46.0701 37.0265 63.7784 29.2614C81.5814 21.4962 101.989 17.6136 125 17.6136C148.485 17.6136 168.797 21.5436 185.938 29.4034C203.078 37.2633 216.288 48.3428 225.568 62.6421C234.943 76.8466 239.678 93.4659 239.773 112.5H164.205Z" fill="white" fill-opacity="0.08"/>
<path d="M353.338 21.5909V312.5H274.929V21.5909H353.338Z" fill="white" fill-opacity="0.08"/>
<path d="M393.288 312.5V94.3182H471.697V312.5H393.288ZM432.493 71.5909C421.887 71.5909 412.796 68.0871 405.22 61.0796C397.644 54.072 393.857 45.6439 393.857 35.7954C393.857 25.947 397.644 17.5189 405.22 10.5114C412.796 3.50378 421.887 0 432.493 0C443.194 0 452.285 3.50378 459.766 10.5114C467.341 17.5189 471.129 25.947 471.129 35.7954C471.129 45.6439 467.341 54.072 459.766 61.0796C452.285 68.0871 443.194 71.5909 432.493 71.5909Z" fill="white" fill-opacity="0.08"/>
<path d="M616.761 316.477C593.087 316.477 572.822 311.79 555.966 302.415C539.11 292.945 526.184 279.782 517.188 262.926C508.191 245.975 503.693 226.326 503.693 203.977C503.693 181.629 508.191 162.027 517.188 145.17C526.184 128.22 539.11 115.057 555.966 105.682C572.822 96.2121 593.087 91.4773 616.761 91.4773C638.163 91.4773 656.676 95.3598 672.301 103.125C688.021 110.795 700.189 121.686 708.807 135.795C717.424 149.811 721.78 166.288 721.875 185.227H649.148C648.106 173.769 644.792 165.057 639.205 159.091C633.712 153.03 626.61 150 617.898 150C611.08 150 605.114 151.989 600 155.966C594.886 159.848 590.909 165.767 588.068 173.722C585.227 181.581 583.807 191.477 583.807 203.409C583.807 215.341 585.227 225.284 588.068 233.239C590.909 241.098 594.886 247.017 600 250.994C605.114 254.877 611.08 256.818 617.898 256.818C623.674 256.818 628.788 255.492 633.239 252.841C637.689 250.095 641.288 246.117 644.034 240.909C646.875 235.606 648.58 229.167 649.148 221.591H721.875C721.591 240.814 717.188 257.576 708.665 271.875C700.142 286.08 688.068 297.064 672.443 304.83C656.913 312.595 638.352 316.477 616.761 316.477Z" fill="white" fill-opacity="0.08"/>
<path d="M824.68 260.795L825.249 167.614H835.476L888.317 94.3182H976.385L887.749 208.523H865.589L824.68 260.795ZM754.226 312.5V21.5909H832.635V312.5H754.226ZM888.885 312.5L838.885 226.136L890.021 170.455L978.658 312.5H888.885Z" fill="white" fill-opacity="0.08"/>
</svg>
