<svg width="142" height="950" viewBox="0 0 142 950" fill="none" xmlns="http://www.w3.org/2000/svg">
<path d="M4.00001e-05 915.095H84C92.4 915.095 98.8667 913.029 103.4 908.895C107.933 904.762 110.2 898.695 110.2 890.695C110.2 882.695 107.933 876.562 103.4 872.295C98.8667 868.029 92.4 865.895 84 865.895H3.78495e-05L3.63546e-05 831.695H83.8C96.3334 831.695 106.933 834.362 115.6 839.695C124.267 845.029 130.8 852.229 135.2 861.295C139.6 870.229 141.8 880.229 141.8 891.295C141.8 902.362 139.667 912.295 135.4 921.095C131 929.762 124.467 936.629 115.8 941.695C107 946.762 96.3334 949.295 83.8 949.295L4.1495e-05 949.295L4.00001e-05 915.095Z" fill="white"/>
<path d="M114 773.48V728.68H140.4V807.68H3.53048e-05L3.38099e-05 773.48H114Z" fill="white"/>
<path d="M2.67237e-05 611.367H27.4L27.4 648.567H140.4V682.767H27.4L27.4 719.967H3.14708e-05L2.67237e-05 611.367Z" fill="white"/>
<path d="M2.44785e-05 560.003H140.4V594.203H2.59734e-05L2.44785e-05 560.003Z" fill="white"/>
<path d="M1.6445e-05 376.219H140.4V410.419H56.2L140.4 441.819V469.419L56 501.019L140.4 501.019V535.219H2.33952e-05L2.16292e-05 494.819L97.2 455.419L1.82022e-05 416.419L1.6445e-05 376.219Z" fill="white"/>
<path d="M115.6 264.225V316.625L140.4 325.025V360.825L1.35516e-05 310.025L1.18207e-05 270.425L140.4 219.625V255.825L115.6 264.225ZM89.2 273.025L37.8 290.425L89.2 307.625V273.025Z" fill="white"/>
<path d="M4.50944e-06 103.164H27.4L27.4 140.364L140.4 140.364V174.564L27.4 174.564L27.4 211.764H9.2565e-06L4.50944e-06 103.164Z" fill="white"/>
<path d="M27.4 51.8L55.8 51.8L55.8 6L82.2 6V51.8H113L113 1.19769e-06L140.4 0V86L3.75918e-06 86L0 6.13708e-06L27.4 4.93939e-06L27.4 51.8Z" fill="white"/>
</svg>
